<svg xmlns="http://www.w3.org/2000/svg" width="30" height="30" viewBox="0 0 30 30">
    <g fill-rule="evenodd">
        <path d="M27.377 16.012C25.693 10.783 20.79 7 15 7 9.211 7 4.306 10.783 2.623 16.012a1.01 1.01 0 0 0 .727 1.3l.978.224a.987.987 0 0 0 1.164-.642C6.798 12.892 10.562 10 15 10c4.44 0 8.202 2.893 9.508 6.895a.986.986 0 0 0 1.164.642l.978-.225c.577-.133.908-.736.727-1.299M15 12a8.003 8.003 0 0 0-7.466 5.12c-.217.562.132 1.188.72 1.324l.988.228a.992.992 0 0 0 1.14-.593 5.003 5.003 0 0 1 9.236 0 .991.991 0 0 0 1.14.593l.99-.228c.586-.136.935-.762.717-1.324A8.002 8.002 0 0 0 15 12m0 5A3 3 0 1 0 15.001 23a3 3 0 0 0 0-6"/>
    </g>
</svg>
