<svg xmlns="http://www.w3.org/2000/svg" xmlns:xlink="http://www.w3.org/1999/xlink" width="24" height="24" viewBox="0 0 24 24">
    <defs>
        <path id="a" d="M14.1 8a2.1 2.1 0 1 1-4.2 0 2.1 2.1 0 0 1 4.2 0zm4 9v.1a1 1 0 0 1-1 1H6.9a1 1 0 0 1-1-1V17c0-.64 3.13-2.1 6.1-2.1 2.97 0 6.1 1.46 6.1 2.1zM12 4C9.79 4 8 5.79 8 8s1.79 4 4 4 4-1.79 4-4-1.79-4-4-4zm0 9c-2.67 0-8 1.34-8 4v1a2 2 0 0 0 2 2h12a2 2 0 0 0 2-2v-1c0-2.66-5.33-4-8-4z"/>
    </defs>
    <use fill-rule="nonzero" xlink:href="#a"/>
</svg>
